<svg width="40" height="40" viewBox="0 0 40 40" fill="none" xmlns="http://www.w3.org/2000/svg">
<path fill-rule="evenodd" clip-rule="evenodd" d="M23.6317 4.91333L31.2483 9.31333C32.3523 9.95071 33.2692 10.8673 33.9069 11.971C34.5447 13.0748 34.8808 14.3269 34.8817 15.6017V24.3983C34.8811 25.6734 34.5451 26.9258 33.9074 28.0299C33.2696 29.134 32.3526 30.0508 31.2483 30.6883L23.6317 35.0867C22.5274 35.7238 21.2749 36.0593 20 36.0593C18.7251 36.0593 17.4726 35.7238 16.3683 35.0867L8.75168 30.6867C7.64771 30.0493 6.73083 29.1327 6.09309 28.029C5.45535 26.9252 5.11919 25.6731 5.11835 24.3983V15.6017C5.11835 13.0067 6.50335 10.61 8.75168 9.31167L16.3683 4.91333C17.4726 4.27617 18.7251 3.94075 20 3.94075C21.2749 3.94075 22.5274 4.27617 23.6317 4.91333ZM21.965 7.8C21.3675 7.4554 20.6898 7.274 20 7.274C19.3102 7.274 18.6326 7.4554 18.035 7.8L10.4183 12.2C9.82134 12.5447 9.3254 13.0402 8.98024 13.6369C8.63507 14.2337 8.4528 14.9106 8.45168 15.6V24.4C8.45168 25.8017 9.20168 27.1 10.4183 27.8L18.035 32.2C19.2517 32.9 20.7483 32.9 21.965 32.2L29.5817 27.8C30.1787 27.4553 30.6746 26.9598 31.0198 26.3631C31.365 25.7663 31.5472 25.0894 31.5483 24.4V15.6C31.5483 14.1983 30.7983 12.9 29.5817 12.2L21.965 7.8Z" fill="#7CB342"/>
<path fill-rule="evenodd" clip-rule="evenodd" d="M17.4984 19.66L7.82669 14.8233L9.31669 11.8433L18.9884 16.6783C19.625 16.9967 20.375 16.9967 21.0117 16.6783L30.6834 11.8433L32.175 14.8233L22.5034 19.66C21.7263 20.0482 20.8695 20.2503 20.0009 20.2503C19.1322 20.2503 18.2755 20.0482 17.4984 19.66Z" fill="#7CB342"/>
<path fill-rule="evenodd" clip-rule="evenodd" d="M21.6667 19.0467V34.285H18.3333V19.0467H21.6667Z" fill="#7CB342"/>
</svg>
