<svg width="30" height="30" viewBox="0 0 30 30" fill="none" xmlns="http://www.w3.org/2000/svg">
<path d="M16.25 16.25H26.25V23.75C26.25 24.4375 26.0054 25.0263 25.5163 25.5163C25.0271 26.0063 24.4383 26.2508 23.75 26.25H16.25V16.25ZM16.25 13.75V3.75H23.75C24.4375 3.75 25.0263 3.995 25.5163 4.485C26.0063 4.975 26.2508 5.56333 26.25 6.25V13.75H16.25ZM13.75 13.75H3.75V6.25C3.75 5.5625 3.995 4.97417 4.485 4.485C4.975 3.99583 5.56333 3.75083 6.25 3.75H13.75V13.75ZM13.75 16.25V26.25H6.25C5.5625 26.25 4.97417 26.0054 4.485 25.5163C3.99583 25.0271 3.75083 24.4383 3.75 23.75V16.25H13.75Z" fill="#E0E0E0"/>
</svg>
